<svg width="38" height="31" viewBox="0 0 38 31" fill="none" xmlns="http://www.w3.org/2000/svg">
<path d="M26.706 3.24658V5.68155M33.8965 6.09928L32.0989 7.82107M36.8749 12.9864H34.3326M33.8965 19.8736L32.0989 18.1518M26.706 20.2913V22.7263M21.3131 18.1518L19.5155 19.8736M19.0793 12.9864H16.5371M21.3131 7.82107L19.5155 6.09928M30.943 12.9864C30.943 14.0628 30.4966 15.095 29.702 15.8561C28.9074 16.6172 27.8297 17.0447 26.706 17.0447C25.5823 17.0447 24.5045 16.6172 23.7099 15.8561C22.9154 15.095 22.469 14.0628 22.469 12.9864C22.469 11.9101 22.9154 10.8779 23.7099 10.1168C24.5045 9.35574 25.5823 8.92817 26.706 8.92817C27.8297 8.92817 28.9074 9.35574 29.702 10.1168C30.4966 10.8779 30.943 11.9101 30.943 12.9864Z" stroke="black" stroke-width="1.5" stroke-linecap="round" stroke-linejoin="round"/>
<path d="M3.00488 19.3751C3.00488 20.9167 3.63796 22.3951 4.76484 23.4851C5.89173 24.5752 7.42011 25.1876 9.01376 25.1876H24.036C25.2081 25.1888 26.3436 24.7922 27.2446 24.0669C28.1455 23.3416 28.7549 22.3335 28.9665 21.2183C29.1781 20.1031 28.9786 18.9514 28.4026 17.9638C27.8267 16.9763 26.9108 16.2155 25.8146 15.814C26.0624 15.1323 26.1082 14.3971 25.9468 13.6916C25.7854 12.986 25.4233 12.3382 24.9014 11.8212C24.3795 11.3042 23.7185 10.9387 22.9931 10.766C22.2678 10.5932 21.5069 10.6201 20.7965 10.8436C20.337 9.13865 19.2096 7.67361 17.6529 6.75875C16.0962 5.84388 14.2325 5.55103 12.4565 5.9422C10.6804 6.33338 9.13155 7.37786 8.13778 8.85448C7.14401 10.3311 6.7834 12.1239 7.13232 13.8532C5.93132 14.2366 4.88592 14.9767 4.14489 15.9681C3.40385 16.9595 3.00493 18.1517 3.00488 19.3751Z" fill="#EEEEEE" stroke="black" stroke-width="1.5" stroke-linecap="round" stroke-linejoin="round"/>
</svg>
