<svg width="39" height="37" viewBox="0 0 39 37" fill="none" xmlns="http://www.w3.org/2000/svg">
<path d="M3.65625 23.1249C3.65625 24.9649 4.42667 26.7295 5.79803 28.0305C7.16939 29.3315 9.02935 30.0624 10.9688 30.0624H29.25C30.6765 30.0639 32.0583 29.5906 33.1547 28.7249C34.2511 27.8592 34.9927 26.656 35.2502 25.3249C35.5077 23.9938 35.2649 22.6192 34.564 21.4405C33.8631 20.2618 32.7485 19.3538 31.4145 18.8746C31.716 18.0609 31.7718 17.1835 31.5754 16.3414C31.379 15.4993 30.9384 14.7261 30.3032 14.109C29.668 13.492 28.8636 13.0558 27.9809 12.8496C27.0982 12.6434 26.1723 12.6755 25.3078 12.9422C24.7486 10.9073 23.3765 9.15867 21.4821 8.06674C19.5877 6.9748 17.3197 6.62526 15.1583 7.09215C12.997 7.55904 11.1121 8.80568 9.90272 10.5681C8.69336 12.3305 8.25451 14.4703 8.67913 16.5343C7.21757 16.992 5.94538 17.8753 5.04358 19.0585C4.14178 20.2418 3.65631 21.6648 3.65625 23.1249Z" stroke="black" stroke-width="1.5" stroke-linecap="round" stroke-linejoin="round"/>
</svg>
