<svg width="26" height="26" viewBox="0 0 26 26" fill="none" xmlns="http://www.w3.org/2000/svg">
<path d="M12.4365 3.79049C12.4824 3.67872 12.5604 3.58311 12.6607 3.51582C12.761 3.44853 12.8791 3.4126 12.9999 3.4126C13.1207 3.4126 13.2387 3.44853 13.339 3.51582C13.4394 3.58311 13.5174 3.67872 13.5632 3.79049L15.8653 9.32741C15.9084 9.43101 15.9792 9.52072 16.07 9.58666C16.1608 9.6526 16.268 9.69222 16.3799 9.70116L22.3577 10.18C22.8983 10.2233 23.1171 10.8982 22.7055 11.2503L18.1511 15.1525C18.066 15.2253 18.0026 15.3201 17.9679 15.4265C17.9331 15.533 17.9283 15.6469 17.954 15.7559L19.346 21.5897C19.374 21.7067 19.3667 21.8294 19.325 21.9423C19.2833 22.0552 19.209 22.1531 19.1116 22.2239C19.0143 22.2946 18.8981 22.3348 18.7779 22.3396C18.6576 22.3443 18.5387 22.3133 18.436 22.2505L13.3173 19.1251C13.2217 19.0668 13.1119 19.036 12.9999 19.036C12.8879 19.036 12.7781 19.0668 12.6825 19.1251L7.56371 22.2516C7.46107 22.3144 7.34212 22.3454 7.22187 22.3407C7.10163 22.3359 6.98548 22.2956 6.88811 22.2249C6.79074 22.1542 6.7165 22.0562 6.67478 21.9434C6.63307 21.8305 6.62573 21.7078 6.65371 21.5907L8.0458 15.7559C8.07161 15.6469 8.06687 15.5329 8.03208 15.4265C7.99729 15.32 7.93382 15.2252 7.84863 15.1525L3.2943 11.2503C3.20309 11.1719 3.13711 11.0683 3.10466 10.9524C3.0722 10.8366 3.07471 10.7138 3.11188 10.5994C3.14905 10.485 3.21921 10.3842 3.31354 10.3095C3.40787 10.2349 3.52217 10.1898 3.64205 10.18L9.61988 9.70116C9.73173 9.69222 9.83895 9.6526 9.92974 9.58666C10.0205 9.52072 10.0914 9.43101 10.1345 9.32741L12.4365 3.79049Z" fill="#333333" stroke="#333333" stroke-width="1.5" stroke-linecap="round" stroke-linejoin="round"/>
</svg>
