<svg width="33" height="33" viewBox="0 0 33 33" fill="none" xmlns="http://www.w3.org/2000/svg">
<path d="M23.1852 6.16972L25.5049 3.84872C25.9884 3.36516 26.6443 3.09351 27.3281 3.09351C28.012 3.09351 28.6678 3.36516 29.1514 3.84872C29.6349 4.33228 29.9066 4.98812 29.9066 5.67197C29.9066 6.35582 29.6349 7.01167 29.1514 7.49522L14.5502 22.0963C13.8233 22.8228 12.9269 23.3568 11.9419 23.6501L8.25 24.7501L9.35 21.0582C9.64326 20.0732 10.1772 19.1768 10.9037 18.4498L23.1852 6.16972ZM23.1852 6.16972L26.8125 9.79697M24.75 19.2501V25.7813C24.75 26.6019 24.4241 27.3888 23.8439 27.969C23.2637 28.5491 22.4768 28.8751 21.6562 28.8751H7.21875C6.39824 28.8751 5.61133 28.5491 5.03114 27.969C4.45095 27.3888 4.125 26.6019 4.125 25.7813V11.3438C4.125 10.5233 4.45095 9.73642 5.03114 9.15623C5.61133 8.57604 6.39824 8.2501 7.21875 8.2501H13.75" stroke="black" stroke-width="1.5" stroke-linecap="round" stroke-linejoin="round"/>
</svg>
