<svg width="24" height="24" viewBox="0 0 24 24" fill="none" xmlns="http://www.w3.org/2000/svg">
<g clip-path="url(#clip0_44_124)">
<path d="M16.249 7.75C16.249 8.74456 15.8539 9.69839 15.1507 10.4017C14.4474 11.1049 13.4936 11.5 12.499 11.5C11.5044 11.5 10.5506 11.1049 9.84735 10.4017C9.14409 9.69839 8.749 8.74456 8.749 7.75C8.749 6.75544 9.14409 5.80161 9.84735 5.09835C10.5506 4.39509 11.5044 4 12.499 4C13.4936 4 14.4474 4.39509 15.1507 5.09835C15.8539 5.80161 16.249 6.75544 16.249 7.75ZM5 21.868C5.03213 19.9004 5.83634 18.0242 7.23918 16.644C8.64202 15.2639 10.5311 14.4905 12.499 14.4905C14.4669 14.4905 16.356 15.2639 17.7588 16.644C19.1617 18.0242 19.9659 19.9004 19.998 21.868C17.6454 22.9468 15.0871 23.5035 12.499 23.5C9.823 23.5 7.283 22.916 5 21.868Z" stroke="black" stroke-width="1.5" stroke-linecap="round" stroke-linejoin="round"/>
</g>
<defs>
<clipPath id="clip0_44_124">
<rect width="24" height="24" fill="white"/>
</clipPath>
</defs>
</svg>
