<svg width="28" height="28" viewBox="0 0 28 28" fill="none" xmlns="http://www.w3.org/2000/svg">
<path d="M1.00488 14.3751C1.00488 15.9167 1.63796 17.3951 2.76484 18.4851C3.89173 19.5752 5.42011 20.1876 7.01376 20.1876H22.036C23.2081 20.1888 24.3436 19.7922 25.2446 19.0669C26.1455 18.3416 26.7549 17.3335 26.9665 16.2183C27.1781 15.1031 26.9786 13.9514 26.4026 12.9638C25.8267 11.9763 24.9108 11.2155 23.8146 10.814C24.0624 10.1323 24.1082 9.39712 23.9468 8.69157C23.7854 7.98603 23.4233 7.33818 22.9014 6.82121C22.3795 6.30424 21.7185 5.93874 20.9931 5.76599C20.2678 5.59325 19.5069 5.62014 18.7965 5.84363C18.337 4.13865 17.2096 2.67361 15.6529 1.75875C14.0962 0.843882 12.2325 0.551029 10.4565 0.942204C8.68045 1.33338 7.13155 2.37786 6.13778 3.85448C5.14401 5.33109 4.7834 7.12389 5.13232 8.85321C3.93132 9.23664 2.88592 9.9767 2.14489 10.9681C1.40385 11.9595 1.00493 13.1517 1.00488 14.3751Z" fill="#EEEEEE" stroke="black" stroke-width="1.5" stroke-linecap="round" stroke-linejoin="round"/>
<line x1="4" y1="22.7071" x2="2.70711" y2="24" stroke="black" stroke-linecap="round"/>
<line x1="6" y1="25.7071" x2="4.70711" y2="27" stroke="black" stroke-linecap="round"/>
<line x1="13" y1="25.7071" x2="11.7071" y2="27" stroke="black" stroke-linecap="round"/>
<line x1="19" y1="25.7071" x2="17.7071" y2="27" stroke="black" stroke-linecap="round"/>
<line x1="17" y1="22.7071" x2="15.7071" y2="24" stroke="black" stroke-linecap="round"/>
<line x1="17" y1="22.7071" x2="15.7071" y2="24" stroke="black" stroke-opacity="0.2" stroke-linecap="round"/>
<line x1="17" y1="22.7071" x2="15.7071" y2="24" stroke="black" stroke-opacity="0.2" stroke-linecap="round"/>
<line x1="10" y1="22.7071" x2="8.70711" y2="24" stroke="black" stroke-linecap="round"/>
<line x1="23" y1="22.7071" x2="21.7071" y2="24" stroke="black" stroke-linecap="round"/>
</svg>
