<svg width="33" height="29" viewBox="0 0 33 29" fill="none" xmlns="http://www.w3.org/2000/svg">
<path d="M3.09375 18.125C3.09375 19.5671 3.74565 20.9501 4.90603 21.9699C6.06641 22.9896 7.64022 23.5625 9.28125 23.5625H24.75C25.957 23.5636 27.1262 23.1926 28.054 22.5141C28.9817 21.8356 29.6092 20.8925 29.8271 19.8493C30.045 18.806 29.8395 17.7286 29.2464 16.8047C28.6534 15.8809 27.7103 15.1692 26.5815 14.7936C26.8367 14.1559 26.8838 13.4682 26.7176 12.8081C26.5515 12.1481 26.1786 11.5421 25.6412 11.0584C25.1037 10.5748 24.4231 10.2329 23.6762 10.0713C22.9292 9.9097 22.1458 9.93486 21.4143 10.1439C20.9411 8.54895 19.7801 7.17843 18.1772 6.32259C16.5742 5.46675 14.6551 5.19279 12.8263 5.55873C10.9975 5.92466 9.40254 6.90176 8.37923 8.28311C7.35592 9.66446 6.98459 11.3416 7.34388 12.9593C6.10717 13.318 5.03071 14.0104 4.26764 14.9378C3.50458 15.8652 3.0938 16.9805 3.09375 18.125Z" stroke="black" stroke-width="1.5" stroke-linecap="round" stroke-linejoin="round"/>
<circle cx="7" cy="26" r="1" fill="black"/>
<circle cx="7" cy="26" r="1" fill="black"/>
<circle cx="7" cy="26" r="1" fill="black"/>
<circle cx="10" cy="28" r="1" fill="black"/>
<circle cx="10" cy="28" r="1" fill="black"/>
<circle cx="10" cy="28" r="1" fill="black"/>
<circle cx="14" cy="26" r="1" fill="black"/>
<circle cx="14" cy="26" r="1" fill="black"/>
<circle cx="14" cy="26" r="1" fill="black"/>
<circle cx="17" cy="28" r="1" fill="black"/>
<circle cx="17" cy="28" r="1" fill="black"/>
<circle cx="17" cy="28" r="1" fill="black"/>
<circle cx="21" cy="26" r="1" fill="black"/>
<circle cx="21" cy="26" r="1" fill="black"/>
<circle cx="21" cy="26" r="1" fill="black"/>
<circle cx="24" cy="28" r="1" fill="black"/>
<circle cx="24" cy="28" r="1" fill="black"/>
<circle cx="24" cy="28" r="1" fill="black"/>
</svg>
