<svg width="33" height="31" viewBox="0 0 33 31" fill="none" xmlns="http://www.w3.org/2000/svg">
<path d="M16.5 3.875V6.78125M25.2505 7.27983L23.0629 9.33488M28.875 15.5H25.7812M25.2505 23.7202L23.0629 21.6651M16.5 24.2187V27.125M9.93713 21.6651L7.7495 23.7202M7.21875 15.5H4.125M9.93713 9.33488L7.7495 7.27983M21.6562 15.5C21.6562 16.7846 21.113 18.0167 20.146 18.925C19.179 19.8334 17.8675 20.3437 16.5 20.3437C15.1325 20.3437 13.821 19.8334 12.854 18.925C11.887 18.0167 11.3438 16.7846 11.3438 15.5C11.3438 14.2154 11.887 12.9833 12.854 12.075C13.821 11.1666 15.1325 10.6562 16.5 10.6562C17.8675 10.6562 19.179 11.1666 20.146 12.075C21.113 12.9833 21.6562 14.2154 21.6562 15.5Z" stroke="black" stroke-width="1.5" stroke-linecap="round" stroke-linejoin="round"/>
</svg>
